# 3ds Max Wavefront OBJ Exporter v0.97b - (c)2007 guruware
# File Created: 28.02.2017 10:51:21

#
# object Cone001
#

v  1.0000 -0.5000 -0.0000
v  0.7727 -0.3000 -0.2071
v  0.8000 -0.3000 -0.0000
v  0.9659 -0.5000 -0.2588
v  0.6928 -0.3000 -0.4000
v  0.8660 -0.5000 -0.5000
v  0.5657 -0.3000 -0.5657
v  0.7071 -0.5000 -0.7071
v  0.4000 -0.3000 -0.6928
v  0.5000 -0.5000 -0.8660
v  0.2071 -0.3000 -0.7727
v  0.2588 -0.5000 -0.9659
v  0.0000 -0.3000 -0.8000
v  0.0000 -0.5000 -1.0000
v  -0.2071 -0.3000 -0.7727
v  -0.2588 -0.5000 -0.9659
v  -0.4000 -0.3000 -0.6928
v  -0.5000 -0.5000 -0.8660
v  -0.5657 -0.3000 -0.5657
v  -0.7071 -0.5000 -0.7071
v  -0.6928 -0.3000 -0.4000
v  -0.8660 -0.5000 -0.5000
v  -0.7727 -0.3000 -0.2071
v  -0.9659 -0.5000 -0.2588
v  -0.8000 -0.3000 -0.0000
v  -1.0000 -0.5000 -0.0000
v  -0.7727 -0.3000 0.2071
v  -0.9659 -0.5000 0.2588
v  -0.6928 -0.3000 0.4000
v  -0.8660 -0.5000 0.5000
v  -0.5657 -0.3000 0.5657
v  -0.7071 -0.5000 0.7071
v  -0.4000 -0.3000 0.6928
v  -0.5000 -0.5000 0.8660
v  -0.2071 -0.3000 0.7727
v  -0.2588 -0.5000 0.9659
v  -0.0000 -0.3000 0.8000
v  -0.0000 -0.5000 1.0000
v  0.2071 -0.3000 0.7727
v  0.2588 -0.5000 0.9659
v  0.4000 -0.3000 0.6928
v  0.5000 -0.5000 0.8660
v  0.5657 -0.3000 0.5657
v  0.7071 -0.5000 0.7071
v  0.6928 -0.3000 0.4000
v  0.8660 -0.5000 0.5000
v  0.7727 -0.3000 0.2071
v  0.9659 -0.5000 0.2588
v  0.5796 -0.1000 -0.1553
v  0.6000 -0.1000 -0.0000
v  0.5196 -0.1000 -0.3000
v  0.4243 -0.1000 -0.4243
v  0.3000 -0.1000 -0.5196
v  0.1553 -0.1000 -0.5796
v  0.0000 -0.1000 -0.6000
v  -0.1553 -0.1000 -0.5796
v  -0.3000 -0.1000 -0.5196
v  -0.4243 -0.1000 -0.4243
v  -0.5196 -0.1000 -0.3000
v  -0.5796 -0.1000 -0.1553
v  -0.6000 -0.1000 -0.0000
v  -0.5796 -0.1000 0.1553
v  -0.5196 -0.1000 0.3000
v  -0.4243 -0.1000 0.4243
v  -0.3000 -0.1000 0.5196
v  -0.1553 -0.1000 0.5796
v  -0.0000 -0.1000 0.6000
v  0.1553 -0.1000 0.5796
v  0.3000 -0.1000 0.5196
v  0.4243 -0.1000 0.4243
v  0.5196 -0.1000 0.3000
v  0.5796 -0.1000 0.1553
v  0.3864 0.1000 -0.1035
v  0.4000 0.1000 -0.0000
v  0.3464 0.1000 -0.2000
v  0.2828 0.1000 -0.2828
v  0.2000 0.1000 -0.3464
v  0.1035 0.1000 -0.3864
v  0.0000 0.1000 -0.4000
v  -0.1035 0.1000 -0.3864
v  -0.2000 0.1000 -0.3464
v  -0.2828 0.1000 -0.2828
v  -0.3464 0.1000 -0.2000
v  -0.3864 0.1000 -0.1035
v  -0.4000 0.1000 -0.0000
v  -0.3864 0.1000 0.1035
v  -0.3464 0.1000 0.2000
v  -0.2828 0.1000 0.2828
v  -0.2000 0.1000 0.3464
v  -0.1035 0.1000 0.3864
v  -0.0000 0.1000 0.4000
v  0.1035 0.1000 0.3864
v  0.2000 0.1000 0.3464
v  0.2828 0.1000 0.2828
v  0.3464 0.1000 0.2000
v  0.3864 0.1000 0.1035
v  0.1932 0.3000 -0.0518
v  0.2000 0.3000 -0.0000
v  0.1732 0.3000 -0.1000
v  0.1414 0.3000 -0.1414
v  0.1000 0.3000 -0.1732
v  0.0518 0.3000 -0.1932
v  0.0000 0.3000 -0.2000
v  -0.0518 0.3000 -0.1932
v  -0.1000 0.3000 -0.1732
v  -0.1414 0.3000 -0.1414
v  -0.1732 0.3000 -0.1000
v  -0.1932 0.3000 -0.0518
v  -0.2000 0.3000 -0.0000
v  -0.1932 0.3000 0.0518
v  -0.1732 0.3000 0.1000
v  -0.1414 0.3000 0.1414
v  -0.1000 0.3000 0.1732
v  -0.0518 0.3000 0.1932
v  -0.0000 0.3000 0.2000
v  0.0518 0.3000 0.1932
v  0.1000 0.3000 0.1732
v  0.1414 0.3000 0.1414
v  0.1732 0.3000 0.1000
v  0.1932 0.3000 0.0518
v  0.0000 0.5000 -0.0000
# 121 vertices

vn 0.7071 0.7071 0.0000
vn 0.6830 0.7071 -0.1830
vn 0.6124 0.7071 -0.3536
vn 0.5000 0.7071 -0.5000
vn 0.3536 0.7071 -0.6124
vn 0.1830 0.7071 -0.6830
vn 0.0000 0.7071 -0.7071
vn -0.1830 0.7071 -0.6830
vn -0.3536 0.7071 -0.6124
vn -0.5000 0.7071 -0.5000
vn -0.6124 0.7071 -0.3536
vn -0.6830 0.7071 -0.1830
vn -0.7071 0.7071 -0.0000
vn -0.6830 0.7071 0.1830
vn -0.6124 0.7071 0.3536
vn -0.5000 0.7071 0.5000
vn -0.3536 0.7071 0.6124
vn -0.1830 0.7071 0.6830
vn -0.0000 0.7071 0.7071
vn 0.1830 0.7071 0.6830
vn 0.3536 0.7071 0.6124
vn 0.5000 0.7071 0.5000
vn 0.6124 0.7071 0.3536
vn 0.6830 0.7071 0.1830
vn 0.0000 1.0000 -0.0000
vn 0.0000 -1.0000 -0.0000
# 26 vertex normals

vt 0.7500 0.0000 1.0000
vt 0.7917 0.2000 0.8000
vt 0.7500 0.2000 0.8000
vt 0.3706 0.9830 -0.2500
vt 0.3000 0.8464 -0.1500
vt 0.3965 0.8864 -0.1500
vt 0.2500 0.9330 -0.2500
vt 0.2172 0.7828 -0.1500
vt 0.1464 0.8536 -0.2500
vt 0.1536 0.7000 -0.1500
vt 0.0670 0.7500 -0.2500
vt 0.1136 0.6035 -0.1500
vt 0.9583 0.0000 1.0000
vt 1.0000 0.2000 0.8000
vt 0.9583 0.2000 0.8000
vt 1.0000 0.0000 1.0000
vt 1.0417 0.2000 0.8000
vt 0.0170 0.3706 -0.2500
vt 0.1536 0.3000 -0.1500
vt 0.1136 0.3965 -0.1500
vt 0.0670 0.2500 -0.2500
vt 0.2172 0.2172 -0.1500
vt 0.1464 0.1464 -0.2500
vt 0.3000 0.1536 -0.1500
vt 0.2500 0.0670 -0.2500
vt 0.3965 0.1136 -0.1500
vt 0.2083 0.0000 1.0000
vt 0.2500 0.2000 0.8000
vt 0.2083 0.2000 0.8000
vt 0.2500 0.0000 1.0000
vt 0.2917 0.2000 0.8000
vt 0.6294 0.0170 -0.2500
vt 0.7000 0.1536 -0.1500
vt 0.6035 0.1136 -0.1500
vt 0.7500 0.0670 -0.2500
vt 0.7828 0.2172 -0.1500
vt 0.8536 0.1464 -0.2500
vt 0.8464 0.3000 -0.1500
vt 0.9330 0.2500 -0.2500
vt 0.8864 0.3965 -0.1500
vt 0.4583 0.0000 1.0000
vt 0.5000 0.2000 0.8000
vt 0.4583 0.2000 0.8000
vt 0.5000 0.0000 1.0000
vt 0.5417 0.2000 0.8000
vt 0.9830 0.6294 -0.2500
vt 0.8464 0.7000 -0.1500
vt 0.8864 0.6035 -0.1500
vt 0.9330 0.7500 -0.2500
vt 0.7828 0.7828 -0.1500
vt 0.8536 0.8536 -0.2500
vt 0.7000 0.8464 -0.1500
vt 0.7500 0.9330 -0.2500
vt 0.6035 0.8864 -0.1500
vt 0.7083 0.0000 1.0000
vt 0.7083 0.2000 0.8000
vt 0.7917 0.4000 0.6000
vt 0.7500 0.4000 0.6000
vt 0.3500 0.7598 -0.0500
vt 0.4224 0.7898 -0.0500
vt 0.2879 0.7121 -0.0500
vt 0.2402 0.6500 -0.0500
vt 0.2102 0.5776 -0.0500
vt 1.0000 0.4000 0.6000
vt 0.9583 0.4000 0.6000
vt 1.0417 0.4000 0.6000
vt 0.2402 0.3500 -0.0500
vt 0.2102 0.4224 -0.0500
vt 0.2879 0.2879 -0.0500
vt 0.3500 0.2402 -0.0500
vt 0.4224 0.2102 -0.0500
vt 0.2500 0.4000 0.6000
vt 0.2083 0.4000 0.6000
vt 0.2917 0.4000 0.6000
vt 0.6500 0.2402 -0.0500
vt 0.5776 0.2102 -0.0500
vt 0.7121 0.2879 -0.0500
vt 0.7598 0.3500 -0.0500
vt 0.7898 0.4224 -0.0500
vt 0.5000 0.4000 0.6000
vt 0.4583 0.4000 0.6000
vt 0.5417 0.4000 0.6000
vt 0.7598 0.6500 -0.0500
vt 0.7898 0.5776 -0.0500
vt 0.7121 0.7121 -0.0500
vt 0.6500 0.7598 -0.0500
vt 0.5776 0.7898 -0.0500
vt 0.7083 0.4000 0.6000
vt 0.5000 0.8000 -0.0500
vt 0.4482 0.6932 0.0500
vt 0.5000 0.7000 0.0500
vt 0.4000 0.6732 0.0500
vt 0.3586 0.6414 0.0500
vt 0.3268 0.6000 0.0500
vt 0.3068 0.5518 0.0500
vt 0.3000 0.5000 0.0500
vt 0.2000 0.5000 -0.0500
vt 0.3068 0.4482 0.0500
vt 0.3268 0.4000 0.0500
vt 0.3586 0.3586 0.0500
vt 0.4000 0.3268 0.0500
vt 0.4482 0.3068 0.0500
vt 0.5000 0.3000 0.0500
vt 0.5000 0.2000 -0.0500
vt 0.5518 0.3068 0.0500
vt 0.6000 0.3268 0.0500
vt 0.6414 0.3586 0.0500
vt 0.6732 0.4000 0.0500
vt 0.6932 0.4482 0.0500
vt 0.7000 0.5000 0.0500
vt 0.5417 0.6000 0.4000
vt 0.5000 0.6000 0.4000
vt 0.6732 0.6000 0.0500
vt 0.6932 0.5518 0.0500
vt 0.6414 0.6414 0.0500
vt 0.6000 0.6732 0.0500
vt 0.5518 0.6932 0.0500
vt 0.7500 0.6000 0.4000
vt 0.7917 0.8000 0.2000
vt 0.7500 0.8000 0.2000
vt 0.4500 0.5866 0.1500
vt 0.4741 0.5966 0.1500
vt 0.4293 0.5707 0.1500
vt 0.4134 0.5500 0.1500
vt 0.4034 0.5259 0.1500
vt 0.4000 0.5000 0.1500
vt 1.0000 0.6000 0.4000
vt 1.0417 0.8000 0.2000
vt 1.0000 0.8000 0.2000
vt 0.4134 0.4500 0.1500
vt 0.4034 0.4741 0.1500
vt 0.4293 0.4293 0.1500
vt 0.4500 0.4134 0.1500
vt 0.4741 0.4034 0.1500
vt 0.5000 0.4000 0.1500
vt 0.2500 0.6000 0.4000
vt 0.2917 0.8000 0.2000
vt 0.2500 0.8000 0.2000
vt 0.5500 0.4134 0.1500
vt 0.5259 0.4034 0.1500
vt 0.5707 0.4293 0.1500
vt 0.5866 0.4500 0.1500
vt 0.5966 0.4741 0.1500
vt 0.4583 0.6000 0.4000
vt 0.5000 0.8000 0.2000
vt 0.4583 0.8000 0.2000
vt 0.5417 0.8000 0.2000
vt 0.5866 0.5500 0.1500
vt 0.5966 0.5259 0.1500
vt 0.5707 0.5707 0.1500
vt 0.5500 0.5866 0.1500
vt 0.5259 0.5966 0.1500
vt 0.7083 0.6000 0.4000
vt 0.7083 0.8000 0.2000
vt 0.5000 1.0000 0.0000
vt 0.5000 0.5000 0.2500
vt 0.9583 0.8000 0.2000
vt 2.0000 0.8000 0.2000
vt 1.5000 1.0000 0.0000
vt 0.6000 0.5000 0.1500
vt 0.6294 0.9830 -0.2500
vt 0.5000 1.0000 -0.2500
vt 0.7917 0.0000 1.0000
vt 0.0170 0.6294 -0.2500
vt 1.0417 0.0000 1.0000
vt 0.3706 0.0170 -0.2500
vt 0.2917 0.0000 1.0000
vt 0.9830 0.3706 -0.2500
vt 0.5417 0.0000 1.0000
vt 0.8000 0.5000 -0.0500
vt 0.7917 0.6000 0.4000
vt 1.0417 0.6000 0.4000
vt 0.2917 0.6000 0.4000
vt 1.0000 0.5000 -0.2500
vt 0.5000 0.0000 -0.2500
vt 0.0000 0.5000 -0.2500
# 176 texture coords

g Cone001
s 8
f 1/1/1 2/2/2 3/3/1 
f 4/4/2 5/5/3 2/6/2 
f 6/7/3 7/8/4 5/5/3 
f 8/9/4 9/10/5 7/8/4 
f 10/11/5 11/12/6 9/10/5 
f 12/13/6 13/14/7 11/15/6 
f 14/16/7 15/17/8 13/14/7 
f 16/18/8 17/19/9 15/20/8 
f 18/21/9 19/22/10 17/19/9 
f 20/23/10 21/24/11 19/22/10 
f 22/25/11 23/26/12 21/24/11 
f 24/27/12 25/28/13 23/29/12 
f 26/30/13 27/31/14 25/28/13 
f 28/32/14 29/33/15 27/34/14 
f 30/35/15 31/36/16 29/33/15 
f 32/37/16 33/38/17 31/36/16 
f 34/39/17 35/40/18 33/38/17 
f 36/41/18 37/42/19 35/43/18 
f 38/44/19 39/45/20 37/42/19 
f 40/46/20 41/47/21 39/48/20 
f 42/49/21 43/50/22 41/47/21 
f 44/51/22 45/52/23 43/50/22 
f 46/53/23 47/54/24 45/52/23 
f 48/55/24 3/3/1 47/56/24 
f 3/3/1 49/57/2 50/58/1 
f 2/6/2 51/59/3 49/60/2 
f 5/5/3 52/61/4 51/59/3 
f 7/8/4 53/62/5 52/61/4 
f 9/10/5 54/63/6 53/62/5 
f 11/15/6 55/64/7 54/65/6 
f 13/14/7 56/66/8 55/64/7 
f 15/20/8 57/67/9 56/68/8 
f 17/19/9 58/69/10 57/67/9 
f 19/22/10 59/70/11 58/69/10 
f 21/24/11 60/71/12 59/70/11 
f 23/29/12 61/72/13 60/73/12 
f 25/28/13 62/74/14 61/72/13 
f 27/34/14 63/75/15 62/76/14 
f 29/33/15 64/77/16 63/75/15 
f 31/36/16 65/78/17 64/77/16 
f 33/38/17 66/79/18 65/78/17 
f 35/43/18 67/80/19 66/81/18 
f 37/42/19 68/82/20 67/80/19 
f 39/48/20 69/83/21 68/84/20 
f 41/47/21 70/85/22 69/83/21 
f 43/50/22 71/86/23 70/85/22 
f 45/52/23 72/87/24 71/86/23 
f 47/56/24 50/58/1 72/88/24 
f 50/89/1 73/90/2 74/91/1 
f 49/60/2 75/92/3 73/90/2 
f 51/59/3 76/93/4 75/92/3 
f 52/61/4 77/94/5 76/93/4 
f 53/62/5 78/95/6 77/94/5 
f 54/63/6 79/96/7 78/95/6 
f 55/97/7 80/98/8 79/96/7 
f 56/68/8 81/99/9 80/98/8 
f 57/67/9 82/100/10 81/99/9 
f 58/69/10 83/101/11 82/100/10 
f 59/70/11 84/102/12 83/101/11 
f 60/71/12 85/103/13 84/102/12 
f 61/104/13 86/105/14 85/103/13 
f 62/76/14 87/106/15 86/105/14 
f 63/75/15 88/107/16 87/106/15 
f 64/77/16 89/108/17 88/107/16 
f 65/78/17 90/109/18 89/108/17 
f 66/79/18 91/110/19 90/109/18 
f 67/80/19 92/111/20 91/112/19 
f 68/84/20 93/113/21 92/114/20 
f 69/83/21 94/115/22 93/113/21 
f 70/85/22 95/116/23 94/115/22 
f 71/86/23 96/117/24 95/116/23 
f 72/87/24 74/91/1 96/117/24 
f 74/118/1 97/119/2 98/120/1 
f 73/90/2 99/121/3 97/122/2 
f 75/92/3 100/123/4 99/121/3 
f 76/93/4 101/124/5 100/123/4 
f 77/94/5 102/125/6 101/124/5 
f 78/95/6 103/126/7 102/125/6 
f 79/127/7 104/128/8 103/129/7 
f 80/98/8 105/130/9 104/131/8 
f 81/99/9 106/132/10 105/130/9 
f 82/100/10 107/133/11 106/132/10 
f 83/101/11 108/134/12 107/133/11 
f 84/102/12 109/135/13 108/134/12 
f 85/136/13 110/137/14 109/138/13 
f 86/105/14 111/139/15 110/140/14 
f 87/106/15 112/141/16 111/139/15 
f 88/107/16 113/142/17 112/141/16 
f 89/108/17 114/143/18 113/142/17 
f 90/144/18 115/145/19 114/146/18 
f 91/112/19 116/147/20 115/145/19 
f 92/114/20 117/148/21 116/149/20 
f 93/113/21 118/150/22 117/148/21 
f 94/115/22 119/151/23 118/150/22 
f 95/116/23 120/152/24 119/151/23 
f 96/153/24 98/120/1 120/154/24 
f 98/120/1 97/119/2 121/155/25 
f 97/122/2 99/121/3 121/156/25 
f 99/121/3 100/123/4 121/156/25 
f 100/123/4 101/124/5 121/156/25 
f 101/124/5 102/125/6 121/156/25 
f 102/157/6 103/129/7 121/155/25 
f 103/158/7 104/128/8 121/159/25 
f 104/131/8 105/130/9 121/156/25 
f 105/130/9 106/132/10 121/156/25 
f 106/132/10 107/133/11 121/156/25 
f 107/133/11 108/134/12 121/156/25 
f 108/134/12 109/135/13 121/156/25 
f 109/138/13 110/137/14 121/155/25 
f 110/140/14 111/139/15 121/156/25 
f 111/139/15 112/141/16 121/156/25 
f 112/141/16 113/142/17 121/156/25 
f 113/142/17 114/143/18 121/156/25 
f 114/143/18 115/160/19 121/156/25 
f 115/145/19 116/147/20 121/155/25 
f 116/149/20 117/148/21 121/156/25 
f 117/148/21 118/150/22 121/156/25 
f 118/150/22 119/151/23 121/156/25 
f 119/151/23 120/152/24 121/156/25 
f 120/154/24 98/120/1 121/155/25 
s 1
f 48/161/26 46/53/26 1/162/26 
s 8
f 1/1/1 4/163/2 2/2/2 
f 4/4/2 6/7/3 5/5/3 
f 6/7/3 8/9/4 7/8/4 
f 8/9/4 10/11/5 9/10/5 
f 10/11/5 12/164/6 11/12/6 
f 12/13/6 14/16/7 13/14/7 
f 14/16/7 16/165/8 15/17/8 
f 16/18/8 18/21/9 17/19/9 
f 18/21/9 20/23/10 19/22/10 
f 20/23/10 22/25/11 21/24/11 
f 22/25/11 24/166/12 23/26/12 
f 24/27/12 26/30/13 25/28/13 
f 26/30/13 28/167/14 27/31/14 
f 28/32/14 30/35/15 29/33/15 
f 30/35/15 32/37/16 31/36/16 
f 32/37/16 34/39/17 33/38/17 
f 34/39/17 36/168/18 35/40/18 
f 36/41/18 38/44/19 37/42/19 
f 38/44/19 40/169/20 39/45/20 
f 40/46/20 42/49/21 41/47/21 
f 42/49/21 44/51/22 43/50/22 
f 44/51/22 46/53/23 45/52/23 
f 46/53/23 48/161/24 47/54/24 
f 48/55/24 1/1/1 3/3/1 
f 3/3/1 2/2/2 49/57/2 
f 2/6/2 5/5/3 51/59/3 
f 5/5/3 7/8/4 52/61/4 
f 7/8/4 9/10/5 53/62/5 
f 9/10/5 11/12/6 54/63/6 
f 11/15/6 13/14/7 55/64/7 
f 13/14/7 15/17/8 56/66/8 
f 15/20/8 17/19/9 57/67/9 
f 17/19/9 19/22/10 58/69/10 
f 19/22/10 21/24/11 59/70/11 
f 21/24/11 23/26/12 60/71/12 
f 23/29/12 25/28/13 61/72/13 
f 25/28/13 27/31/14 62/74/14 
f 27/34/14 29/33/15 63/75/15 
f 29/33/15 31/36/16 64/77/16 
f 31/36/16 33/38/17 65/78/17 
f 33/38/17 35/40/18 66/79/18 
f 35/43/18 37/42/19 67/80/19 
f 37/42/19 39/45/20 68/82/20 
f 39/48/20 41/47/21 69/83/21 
f 41/47/21 43/50/22 70/85/22 
f 43/50/22 45/52/23 71/86/23 
f 45/52/23 47/54/24 72/87/24 
f 47/56/24 3/3/1 50/58/1 
f 50/89/1 49/60/2 73/90/2 
f 49/60/2 51/59/3 75/92/3 
f 51/59/3 52/61/4 76/93/4 
f 52/61/4 53/62/5 77/94/5 
f 53/62/5 54/63/6 78/95/6 
f 54/63/6 55/97/7 79/96/7 
f 55/97/7 56/68/8 80/98/8 
f 56/68/8 57/67/9 81/99/9 
f 57/67/9 58/69/10 82/100/10 
f 58/69/10 59/70/11 83/101/11 
f 59/70/11 60/71/12 84/102/12 
f 60/71/12 61/104/13 85/103/13 
f 61/104/13 62/76/14 86/105/14 
f 62/76/14 63/75/15 87/106/15 
f 63/75/15 64/77/16 88/107/16 
f 64/77/16 65/78/17 89/108/17 
f 65/78/17 66/79/18 90/109/18 
f 66/79/18 67/170/19 91/110/19 
f 67/80/19 68/82/20 92/111/20 
f 68/84/20 69/83/21 93/113/21 
f 69/83/21 70/85/22 94/115/22 
f 70/85/22 71/86/23 95/116/23 
f 71/86/23 72/87/24 96/117/24 
f 72/87/24 50/89/1 74/91/1 
f 74/118/1 73/171/2 97/119/2 
f 73/90/2 75/92/3 99/121/3 
f 75/92/3 76/93/4 100/123/4 
f 76/93/4 77/94/5 101/124/5 
f 77/94/5 78/95/6 102/125/6 
f 78/95/6 79/96/7 103/126/7 
f 79/127/7 80/172/8 104/128/8 
f 80/98/8 81/99/9 105/130/9 
f 81/99/9 82/100/10 106/132/10 
f 82/100/10 83/101/11 107/133/11 
f 83/101/11 84/102/12 108/134/12 
f 84/102/12 85/103/13 109/135/13 
f 85/136/13 86/173/14 110/137/14 
f 86/105/14 87/106/15 111/139/15 
f 87/106/15 88/107/16 112/141/16 
f 88/107/16 89/108/17 113/142/17 
f 89/108/17 90/109/18 114/143/18 
f 90/144/18 91/112/19 115/145/19 
f 91/112/19 92/111/20 116/147/20 
f 92/114/20 93/113/21 117/148/21 
f 93/113/21 94/115/22 118/150/22 
f 94/115/22 95/116/23 119/151/23 
f 95/116/23 96/117/24 120/152/24 
f 96/153/24 74/118/1 98/120/1 
s 1
f 46/53/26 44/51/26 42/49/26 
f 42/49/26 40/46/26 38/174/26 
f 38/174/26 36/168/26 34/39/26 
f 42/49/26 38/174/26 34/39/26 
f 34/39/26 32/37/26 30/35/26 
f 30/35/26 28/32/26 26/175/26 
f 34/39/26 30/35/26 26/175/26 
f 26/175/26 24/166/26 22/25/26 
f 22/25/26 20/23/26 18/21/26 
f 26/175/26 22/25/26 18/21/26 
f 34/39/26 26/175/26 18/21/26 
f 18/21/26 16/18/26 14/176/26 
f 14/176/26 12/164/26 10/11/26 
f 18/21/26 14/176/26 10/11/26 
f 10/11/26 8/9/26 6/7/26 
f 6/7/26 4/4/26 1/162/26 
f 10/11/26 6/7/26 1/162/26 
f 18/21/26 10/11/26 1/162/26 
f 34/39/26 18/21/26 1/162/26 
f 42/49/26 34/39/26 1/162/26 
f 46/53/26 42/49/26 1/162/26 
# 0 polygons - 238 triangles

